<?xml version="1.0" standalone="no"?>
<!DOCTYPE svg PUBLIC "-//W3C//DTD SVG 20010904//EN"
 "http://www.w3.org/TR/2001/REC-SVG-20010904/DTD/svg10.dtd">
<svg version="1.0" xmlns="http://www.w3.org/2000/svg"
 width="1080.000000pt" height="1080.000000pt" viewBox="0 0 1080.000000 1080.000000"
 preserveAspectRatio="xMidYMid meet">

<g transform="translate(0.000000,1080.000000) scale(0.100000,-0.100000)"
fill="#000000" stroke="none">
<path d="M715 7680 c-13 -26 -15 -177 -14 -1297 0 -698 4 -1286 7 -1308 l7
-40 730 -3 c402 -2 749 0 773 3 l42 6 0 179 c0 173 -1 179 -22 194 -19 14 -91
16 -547 16 -361 -1 -528 3 -535 10 -8 7 -11 124 -11 359 0 280 3 351 14 364
12 15 53 17 403 17 249 0 396 4 409 10 18 10 19 23 19 184 0 131 -3 176 -13
184 -9 8 -141 12 -405 14 -360 3 -393 4 -409 21 -17 16 -18 44 -18 340 0 177
3 334 8 350 l7 27 523 1 c287 1 533 4 547 8 46 12 37 47 -52 214 -68 128 -88
159 -111 167 -17 6 -280 9 -682 10 l-655 0 -15 -30z"/>
<path d="M2570 7697 c-44 -22 -39 -71 19 -184 27 -54 157 -316 289 -583 131
-267 276 -559 321 -650 l82 -165 2 -515 c3 -375 7 -521 15 -537 17 -31 53 -35
240 -31 115 2 165 7 174 16 10 10 14 128 18 545 l5 532 294 590 c445 893 451
906 451 931 0 12 -11 31 -24 42 -22 17 -44 19 -203 20 -98 1 -190 -1 -205 -4
-29 -6 -56 -54 -138 -244 -18 -41 -50 -113 -71 -158 -22 -46 -39 -86 -39 -88
0 -4 -27 -65 -115 -259 -7 -16 -30 -65 -49 -108 -20 -42 -36 -79 -36 -82 0
-21 -82 -175 -93 -175 -7 0 -22 19 -32 43 -18 41 -58 128 -117 257 -17 36 -38
85 -48 110 -10 25 -30 68 -44 96 -14 29 -26 55 -26 58 0 4 -18 45 -40 92 -22
47 -40 87 -40 89 0 2 -17 41 -39 87 -21 45 -55 121 -75 168 -21 47 -44 91 -51
99 -20 20 -388 27 -425 8z"/>
<path d="M4900 7702 c-19 -2 -41 -8 -47 -14 -10 -8 -13 -284 -13 -1329 l0
-1318 43 -6 c75 -11 365 -1 379 13 10 10 14 128 16 560 2 495 4 548 19 560 13
9 107 12 389 12 204 0 386 3 403 6 l31 7 0 183 c0 100 -4 185 -9 188 -4 3
-186 8 -403 10 -217 3 -402 8 -411 12 -16 6 -17 37 -17 359 0 313 2 354 16
359 9 3 248 6 533 6 451 0 519 2 539 16 12 8 22 24 22 34 0 10 -26 67 -58 127
-32 59 -67 127 -78 150 -36 78 4 74 -696 71 -343 -1 -639 -4 -658 -6z"/>
<path d="M6780 7697 l-25 -13 0 -1316 c0 -724 4 -1320 8 -1325 13 -13 1503
-16 1528 -3 18 10 19 20 17 188 l-3 176 -25 13 c-19 10 -147 13 -551 13 l-526
0 -7 31 c-10 51 -7 665 4 693 l9 25 406 3 c348 3 407 5 415 18 5 8 10 90 10
181 0 143 -2 169 -17 180 -13 11 -92 14 -414 15 -219 0 -402 4 -406 8 -12 12
-15 668 -4 699 l11 27 528 0 c570 0 565 0 565 52 0 14 -24 70 -53 124 -29 55
-64 119 -77 144 -45 86 17 79 -716 80 -509 0 -657 -3 -677 -13z"/>
<path d="M8697 7695 l-22 -11 -3 -1314 c-2 -1227 -1 -1316 15 -1328 13 -9 181
-12 759 -12 430 0 753 4 767 9 41 16 40 38 -6 124 -99 185 -131 243 -140 255
-7 9 -111 12 -456 12 -245 0 -456 3 -468 6 l-23 6 0 1114 c0 1112 0 1114 -21
1135 -19 19 -30 20 -200 18 -105 -2 -189 -7 -202 -14z"/>
<path d="M711 4562 c-6 -11 -7 -32 -2 -48 l7 -29 4754 -3 c3505 -1 4756 1
4766 9 17 14 18 61 2 77 -9 9 -1081 12 -4765 12 -4612 0 -4753 -1 -4762 -18z"/>
<path d="M720 4392 c-16 -6 -12 -39 6 -46 8 -3 2150 -6 4758 -6 4934 0 4781
-1 4757 38 -6 9 -1047 12 -4759 14 -2614 2 -4757 2 -4762 0z"/>
<path d="M706 3868 c-8 -30 -8 -237 0 -277 l7 -31 159 0 159 0 -3 28 -3 27
-120 5 -120 5 0 35 0 35 70 5 c68 5 70 6 73 33 l3 27 -70 0 c-62 0 -70 2 -76
21 -4 12 -2 26 3 31 6 6 58 12 118 14 111 3 128 9 122 40 -3 17 -16 19 -159
22 -155 2 -157 2 -163 -20z"/>
<path d="M1592 3878 c-6 -6 -12 -17 -12 -24 0 -7 -3 -14 -7 -16 -5 -1 -20 -28
-35 -58 -15 -30 -45 -86 -67 -125 -22 -38 -40 -76 -41 -82 0 -21 69 -16 77 5
16 45 32 52 129 52 l92 0 22 -34 c11 -19 26 -36 33 -39 21 -7 57 5 57 19 0 12
-47 99 -149 279 -13 23 -26 31 -52 33 -19 2 -40 -3 -47 -10z m76 -122 c12 -24
22 -46 22 -50 0 -3 -22 -6 -50 -6 -37 0 -50 4 -50 15 0 23 33 85 45 85 6 0 21
-20 33 -44z"/>
<path d="M2260 3743 c1 -107 4 -153 14 -165 11 -16 32 -18 157 -18 79 0 151 5
159 10 12 7 16 40 18 165 l3 155 -35 0 -36 0 -1 -102 c-1 -57 -1 -107 0 -112
1 -6 0 -21 -4 -34 -6 -23 -8 -24 -98 -20 l-92 3 -7 55 c-3 30 -6 90 -7 133
l-1 77 -35 0 -35 0 0 -147z"/>
<path d="M3685 3828 c-3 -35 -5 -108 -3 -163 l3 -100 133 -3 c120 -2 137 -1
171 19 52 29 72 67 73 138 1 75 -16 113 -66 145 -38 25 -47 26 -172 26 l-132
0 -7 -62z m265 -18 c41 -22 49 -121 13 -162 -19 -22 -166 -36 -188 -18 -11 9
-15 34 -15 95 0 45 3 85 7 88 10 11 162 8 183 -3z"/>
<path d="M4534 3877 c-2 -7 -3 -80 -2 -162 l3 -150 160 0 160 0 0 25 0 25
-117 3 c-105 2 -119 5 -128 22 -8 14 -8 26 0 40 8 15 23 20 78 22 65 3 67 4
70 30 3 27 3 27 -70 30 -71 3 -73 4 -76 31 -3 27 -2 27 55 29 124 4 149 5 166
7 12 1 17 10 17 31 l0 30 -155 0 c-118 0 -157 -3 -161 -13z"/>
<path d="M5894 3877 c-2 -7 -3 -80 -2 -162 l3 -150 35 0 35 0 5 55 5 55 110 3
c82 2 114 7 127 18 35 33 32 163 -5 186 -7 4 -79 8 -160 8 -112 0 -149 -3
-153 -13z m240 -57 c18 -6 26 -17 26 -32 0 -44 -11 -49 -101 -46 l-84 3 -3 37
c-2 28 1 37 15 41 34 9 122 7 147 -3z"/>
<path d="M6713 3818 c-109 -199 -132 -246 -126 -252 3 -3 19 -6 34 -6 21 0 33
9 49 35 l22 35 91 0 c51 0 97 -4 104 -8 6 -4 16 -20 22 -35 9 -22 17 -27 45
-27 59 0 59 0 -52 195 -26 44 -49 82 -53 85 -4 3 -8 14 -10 25 -3 16 -13 21
-45 23 l-42 3 -39 -73z m105 -58 c12 -21 22 -44 22 -49 0 -12 -96 -15 -103 -3
-6 8 42 92 52 92 3 0 16 -18 29 -40z"/>
<path d="M7438 3868 c-7 -41 -9 -212 -3 -260 7 -46 8 -48 40 -48 34 0 34 0 37
51 5 91 49 92 141 4 52 -50 61 -55 102 -55 25 0 45 4 45 9 0 5 -23 30 -51 55
l-51 46 32 11 c37 13 50 41 50 105 0 45 -13 82 -34 96 -6 4 -77 8 -157 8 -144
0 -147 0 -151 -22z m255 -59 c5 -9 7 -28 3 -43 l-7 -27 -87 3 -87 3 -3 30 c-5
42 17 53 100 51 53 -1 73 -5 81 -17z"/>
<path d="M8255 3877 c-3 -7 -4 -80 -3 -162 l3 -150 35 0 35 0 3 58 3 57 53 0
c66 0 93 17 77 48 -10 19 -20 22 -71 22 l-60 0 0 35 0 35 98 0 c127 0 144 5
140 39 l-3 26 -153 3 c-119 2 -154 0 -157 -11z"/>
<path d="M8997 3883 c-4 -3 -7 -69 -7 -145 0 -185 -7 -178 184 -178 108 0 146
3 155 13 13 17 25 286 12 305 -4 8 -21 12 -37 10 l-29 -3 -3 -126 c-3 -145 2
-139 -102 -139 -103 0 -100 -4 -100 125 0 63 -3 120 -6 129 -6 16 -54 22 -67
9z"/>
<path d="M9840 3724 l0 -165 33 3 32 3 3 93 c1 50 6 92 10 92 10 0 42 -38 42
-49 0 -4 19 -29 41 -55 48 -54 50 -54 112 39 22 33 42 62 44 65 11 13 19 -28
17 -94 -1 -40 1 -79 6 -85 4 -7 20 -11 36 -9 l29 3 0 160 0 160 -34 0 c-31 0
-39 -7 -95 -84 -34 -47 -66 -86 -71 -88 -6 -2 -28 22 -50 53 -71 101 -95 124
-126 124 l-29 0 0 -166z"/>
</g>
</svg>
